<svg width="300" height="300" viewBox="0 0 300 300" fill="none" xmlns="http://www.w3.org/2000/svg">
<path d="M90.03 24.09H39.084V77.196H90.03V24.09Z" fill="#E0E0E0"/>
<path d="M86.58 24.09H35.634V77.196H86.58V24.09Z" fill="#EBEBEB"/>
<path d="M79.734 31.23H42.486V70.056H79.734V31.23Z" fill="#FAFAFA"/>
<path d="M42.486 70.314C42.2119 70.7053 41.9004 71.069 41.556 71.4C40.956 72 40.116 72.87 39.156 73.8C38.196 74.73 37.356 75.552 36.756 76.134C36.4314 76.4707 36.0759 76.7761 35.694 77.046C35.9573 76.6534 36.2609 76.2894 36.6 75.96C37.2 75.36 38.04 74.484 39 73.56C39.96 72.636 40.8 71.808 41.43 71.22C41.7478 70.8803 42.1019 70.5765 42.486 70.314Z" fill="#E0E0E0"/>
<path d="M79.734 70.2C80.1149 70.4756 80.4685 70.787 80.79 71.13C81.39 71.73 82.26 72.57 83.19 73.53C84.12 74.49 84.936 75.33 85.524 75.93C85.8625 76.2529 86.168 76.6086 86.436 76.992C86.0522 76.7224 85.6982 76.4126 85.38 76.068C84.78 75.468 83.91 74.628 82.98 73.668C82.05 72.708 81.234 71.868 80.646 71.268C80.3052 70.9451 79.9995 70.5871 79.734 70.2Z" fill="#E0E0E0"/>
<path d="M79.632 31.332C79.9053 30.9493 80.2169 30.5955 80.562 30.276C81.162 29.676 81.996 28.806 82.932 27.876C83.868 26.946 84.732 26.124 85.362 25.542C85.6876 25.2041 86.0453 24.8987 86.43 24.63C86.1554 25.0099 85.8439 25.3616 85.5 25.68C84.9 26.28 84.066 27.156 83.1 28.08C82.134 29.004 81.3 29.832 80.664 30.42C80.3516 30.7581 80.0059 31.0636 79.632 31.332Z" fill="#E0E0E0"/>
<path d="M42.384 31.428C42.0031 31.1524 41.6495 30.841 41.328 30.498C40.728 29.898 39.852 29.058 38.928 28.098C38.004 27.138 37.176 26.298 36.588 25.698C36.2501 25.3762 35.9465 25.0203 35.682 24.636C36.0614 24.9089 36.4131 25.2184 36.732 25.56C37.332 26.16 38.208 27 39.132 27.96C40.056 28.92 40.884 29.76 41.472 30.36C41.8128 30.6829 42.1185 31.0409 42.384 31.428Z" fill="#E0E0E0"/>
<path d="M79.632 70.056C79.632 70.056 79.632 69.99 79.632 69.87C79.632 69.75 79.632 69.558 79.632 69.33C79.632 68.844 79.632 68.13 79.632 67.236C79.632 65.4 79.632 62.724 79.632 59.322C79.632 52.524 79.596 42.834 79.566 31.23L79.692 31.35H42.546L42.684 31.212C42.684 45.462 42.684 58.812 42.684 70.038L42.564 69.918L69.468 69.978L77.016 70.014H79.014H77.046H69.516L42.516 70.074H42.396V69.954C42.396 58.71 42.396 45.354 42.396 31.128V30.984H42.54H79.686H79.806V31.11C79.806 42.744 79.758 52.464 79.746 59.31C79.746 62.7 79.746 65.364 79.71 67.194C79.71 68.094 79.71 68.79 79.71 69.264C79.71 69.492 79.71 69.666 79.71 69.792C79.71 69.918 79.632 70.056 79.632 70.056Z" fill="#E0E0E0"/>
<path d="M52.3139 47.448C52.3139 47.448 51.5159 57.048 61.9139 57.048C61.9259 51.93 57.6959 47.88 52.3139 47.448Z" fill="#EBEBEB"/>
<path d="M71.364 47.454C71.364 47.454 61.764 46.656 61.764 57.054C66.882 57.072 70.932 52.836 71.364 47.454Z" fill="#EBEBEB"/>
<path d="M61.464 42.192C61.464 42.192 53.61 49.242 61.896 57.06C65.748 52.98 65.4 46.578 61.464 42.192Z" fill="#E0E0E0"/>
<path d="M221.196 218.556C218.026 216.574 214.445 215.343 210.726 214.956C209.016 214.782 207.126 214.83 205.77 215.868C205.613 215.961 205.483 216.093 205.393 216.253C205.304 216.412 205.258 216.591 205.26 216.774C205.345 217.025 205.518 217.238 205.746 217.374C210.006 220.62 216.45 221.034 221.196 218.544" fill="#E0E0E0"/>
<path d="M220.926 218.256C218.501 216.477 216.238 214.487 214.164 212.31C212.081 210.117 210.618 207.411 209.922 204.468C209.742 203.574 209.688 202.554 210.258 201.846C215.658 206.046 219.858 211.5 220.926 218.256Z" fill="#E0E0E0"/>
<path d="M221.142 218.514C220.642 215.571 220.682 212.562 221.262 209.634C221.94 206.736 223.518 203.964 225.996 202.308C226.926 204.486 226.524 206.994 225.87 209.268C224.853 212.793 223.269 216.129 221.178 219.144" fill="#E0E0E0"/>
<path d="M226.422 228C223.218 228.39 220.422 230.082 218.022 232.248C215.618 234.441 213.943 237.318 213.222 240.492C216.372 240.3 219.042 238.092 220.974 235.596C222.906 233.1 224.256 230.376 226.374 228.048" fill="#E0E0E0"/>
<path d="M227.574 229.494C226.312 226.288 225.871 222.817 226.29 219.398C226.709 215.978 227.975 212.716 229.974 209.91C231.804 216.408 231.132 223.752 227.574 229.494Z" fill="#E0E0E0"/>
<path d="M234.552 237.81C231.62 237.627 228.699 238.311 226.153 239.777C223.607 241.243 221.55 243.426 220.236 246.054C220.056 246.408 219.9 246.858 220.14 247.176C220.264 247.296 220.414 247.384 220.58 247.432C220.745 247.48 220.919 247.487 221.088 247.452C223.908 247.272 226.41 245.574 228.474 243.642C230.538 241.71 232.338 239.472 234.618 237.804" fill="#E0E0E0"/>
<path d="M234.33 237.36C232.828 232.52 232.736 227.352 234.066 222.462C234.588 220.542 235.47 218.526 237.246 217.626C237.316 217.578 237.396 217.546 237.48 217.532C237.564 217.517 237.65 217.521 237.732 217.542C237.875 217.617 237.984 217.744 238.038 217.896C238.632 219.238 238.89 220.704 238.788 222.168C238.681 223.626 238.457 225.073 238.116 226.494C237.558 229.14 237.264 231.984 235.812 234.264C235.468 234.812 235.159 235.381 234.888 235.968C234.612 236.568 234.612 236.754 234.36 237.216" fill="#E0E0E0"/>
<path d="M252.81 240.114C251.442 234.9 252.894 228.588 256.176 224.316C256.422 224.004 256.74 223.668 257.136 223.716C257.736 223.77 257.898 224.58 257.868 225.186C257.622 230.543 255.869 235.721 252.81 240.126" fill="#E0E0E0"/>
<path d="M254.478 241.248C260.808 242.898 268.068 241.296 273.33 237.414C270.176 235.833 266.572 235.392 263.13 236.166C259.722 236.946 256.608 238.47 254.484 241.248" fill="#E0E0E0"/>
<path d="M255.882 237.78C259.428 232.002 266.22 228.234 272.994 227.892C272.214 230.646 269.946 232.782 267.396 234.078C264.846 235.374 261.996 235.932 259.182 236.478C258.09 236.688 256.59 236.922 255.882 237.78Z" fill="#E0E0E0"/>
<path d="M253.164 220.956C254.124 217.668 255.09 214.356 255.354 210.936C255.618 207.516 255.126 203.958 253.356 201.024C250.044 207.432 249.714 214.914 253.062 221.298" fill="#E0E0E0"/>
<path d="M264.312 215.322C268.182 208.284 276.078 202.668 284.07 201.876C280.986 209.556 272.58 215.484 264.312 215.322Z" fill="#E0E0E0"/>
<path d="M261.876 216.702C267.648 217.578 272.568 221.268 277.962 223.5C279.092 224.048 280.346 224.288 281.598 224.196C282.182 224.193 282.751 224.01 283.227 223.673C283.704 223.335 284.065 222.859 284.262 222.31C284.458 221.76 284.481 221.163 284.326 220.6C284.172 220.036 283.848 219.535 283.398 219.162C282.634 218.457 281.736 217.913 280.758 217.56C274.878 215.112 268.578 215.052 262.386 216.534" fill="#E0E0E0"/>
<path d="M258.534 220.752C259.842 221.124 260.286 221.802 261.324 222.684C264.853 225.684 269.028 227.827 273.522 228.948C273.99 229.062 274.596 229.11 274.83 228.69C275.064 228.27 274.776 227.874 274.512 227.55C272.553 225.25 270.009 223.522 267.15 222.546C264.33 221.502 261.894 220.236 258.534 220.506" fill="#E0E0E0"/>
<path d="M254.76 196.29C257.129 198.47 259.929 200.13 262.978 201.163C266.028 202.197 269.259 202.58 272.466 202.29C272.76 202.296 273.046 202.193 273.27 202.002C273.714 201.516 273.18 200.766 272.67 200.364C267.462 196.308 261.162 194.622 254.766 196.266" fill="#E0E0E0"/>
<path d="M259.23 194.658C262.364 192.351 265.999 190.817 269.838 190.183C273.678 189.549 277.613 189.833 281.322 191.01C278.538 193.752 274.68 195.21 270.792 195.63C266.911 195.985 262.997 195.656 259.23 194.658Z" fill="#E0E0E0"/>
<path d="M257.454 183.42C256.944 178.224 257.274 174.126 256.914 168.906C256.914 168.486 256.8 167.988 256.41 167.838C255.864 167.628 255.414 168.294 255.21 168.846C254.453 171.266 254.26 173.826 254.643 176.332C255.027 178.838 255.978 181.224 257.424 183.306" fill="#E0E0E0"/>
<path d="M257.082 183.99C260.604 181.812 263.244 178.974 265.686 175.632C267.384 173.304 268.818 170.52 268.434 167.664C266.034 167.616 263.778 168.93 262.224 170.748C260.743 172.63 259.667 174.797 259.062 177.114C258.372 179.4 257.892 181.746 257.082 183.99Z" fill="#E0E0E0"/>
<path d="M265.536 181.644C273.281 178.776 280.452 174.547 286.71 169.158C284.184 168.138 281.31 168.75 278.76 169.758C272.982 172.092 268.26 176.028 265.428 181.572" fill="#E0E0E0"/>
<path d="M259.458 186.834C263.37 187.26 267.342 187.542 271.218 186.894C275.094 186.246 278.634 184.746 282.192 183.246C282.509 183.149 282.778 182.934 282.942 182.646C282.997 182.481 283.001 182.303 282.953 182.136C282.905 181.969 282.807 181.82 282.672 181.71C282.399 181.492 282.078 181.342 281.736 181.272C277.866 180.186 273.684 180.672 269.874 181.98C266.244 183.212 262.753 184.82 259.458 186.78" fill="#E0E0E0"/>
<path d="M237.138 196.47C234.474 191.07 234.648 184.806 236.946 179.256C238.572 181.728 238.746 184.872 238.47 187.818C238.194 190.764 237.27 193.782 237.222 196.74" fill="#E0E0E0"/>
<path d="M226.482 191.094C223.144 191.051 219.833 191.704 216.761 193.013C213.69 194.322 210.925 196.258 208.644 198.696C211.968 199.218 215.388 198.36 218.412 196.896C221.436 195.432 224.124 193.35 226.812 191.292" fill="#E0E0E0"/>
<path d="M219.324 188.7C216.066 188.436 212.928 188.034 209.796 188.994C206.664 189.954 203.796 192.132 202.542 195.15C205.615 195.397 208.698 194.815 211.47 193.464C214.225 192.113 216.853 190.519 219.324 188.7Z" fill="#E0E0E0"/>
<path d="M229.926 188.808C226.998 186.888 223.986 184.938 220.578 184.14C217.17 183.342 213.21 183.93 210.828 186.504C213.594 188.124 216.942 188.304 220.146 188.304C223.35 188.304 227.274 188.262 230.292 189.33" fill="#E0E0E0"/>
<path d="M229.944 188.964C224.934 184.044 223.038 175.206 225.054 168.486C229.007 174.539 230.736 181.778 229.944 188.964Z" fill="#E0E0E0"/>
<path d="M243.72 175.026C244.668 172.83 245.328 170.526 246.18 168.288C246.952 166.019 248.138 163.914 249.678 162.078C251.247 160.234 253.477 159.079 255.888 158.862C255.116 162.251 253.646 165.441 251.573 168.23C249.5 171.019 246.868 173.346 243.846 175.062" fill="#E0E0E0"/>
<path d="M241.23 177.93C239.664 175.782 237.858 172.86 235.74 171.252C233.622 169.644 230.856 168.672 228.27 169.29C229.61 171.638 231.48 173.641 233.729 175.141C235.979 176.641 238.547 177.596 241.23 177.93Z" fill="#E0E0E0"/>
<path d="M241.728 175.2C240.702 172.596 239.67 169.962 239.256 167.196C238.842 164.43 239.094 161.472 240.51 159.06C243.258 164.256 244.146 169.86 241.866 175.26" fill="#E0E0E0"/>
<path d="M243.744 159.066C245.304 153.912 250.02 150.114 255.114 148.374C255.747 148.118 256.432 148.015 257.112 148.074C257.45 148.113 257.77 148.251 258.031 148.469C258.292 148.688 258.484 148.978 258.582 149.304C258.768 150.18 258.042 150.966 257.382 151.548C253.398 154.948 248.767 157.505 243.768 159.066" fill="#E0E0E0"/>
<path d="M243.804 154.848C244.002 151.53 244.206 148.158 245.286 145.008C246.366 141.858 248.454 138.906 251.484 137.532C252 140.886 250.518 144.222 248.73 147.132C246.942 150.042 244.794 152.742 243.72 155.964" fill="#E0E0E0"/>
<path d="M243.72 157.14C242.436 153.384 242.298 148.614 240.054 145.338C238.482 143.052 235.962 141.492 234.606 139.074C233.788 141.396 233.902 143.944 234.924 146.184C235.946 148.401 237.354 150.418 239.082 152.142C240.75 153.942 242.172 155.256 243.72 157.14Z" fill="#E0E0E0"/>
<path d="M243.744 267.738C243.648 267.738 243.558 242.682 243.552 211.788C243.546 180.894 243.618 155.826 243.72 155.826C243.822 155.826 243.906 180.876 243.912 211.788C243.918 242.7 243.846 267.738 243.744 267.738Z" fill="#E0E0E0"/>
<path d="M265.638 192.69C265.336 192.837 265.02 192.956 264.696 193.044L262.104 193.92C259.92 194.664 256.914 195.72 253.656 197.076C250.398 198.432 247.386 199.584 245.652 201.084C244.962 201.663 244.412 202.392 244.044 203.214C243.798 203.814 243.756 204.162 243.72 204.156C243.705 204.069 243.705 203.979 243.72 203.892C243.759 203.643 243.821 203.398 243.906 203.16C244.233 202.286 244.771 201.507 245.472 200.892C246.519 200.008 247.689 199.282 248.946 198.738C250.332 198.09 251.874 197.412 253.506 196.74C256.776 195.402 259.806 194.34 262.014 193.674C263.118 193.332 264.018 193.074 264.648 192.906C264.97 192.803 265.302 192.73 265.638 192.69Z" fill="#E0E0E0"/>
<path d="M272.814 175.062C272.814 175.062 272.736 175.17 272.55 175.344L271.746 176.1L268.746 178.824L258.756 187.722C254.856 191.19 251.49 194.508 249.156 197.004C247.986 198.252 247.062 199.284 246.432 200.004C246.144 200.34 245.904 200.604 245.706 200.832C245.508 201.06 245.448 201.12 245.436 201.108C245.498 200.996 245.571 200.889 245.652 200.79C245.802 200.586 246.024 200.286 246.324 199.914C246.924 199.164 247.818 198.114 248.964 196.83C251.979 193.536 255.167 190.406 258.516 187.452C262.428 183.984 265.992 180.852 268.578 178.632L271.656 175.992L272.502 175.29C272.597 175.202 272.702 175.126 272.814 175.062Z" fill="#E0E0E0"/>
<path d="M254.55 191.25C254.448 191.202 255.258 189.324 256.074 186.942C256.89 184.56 257.274 182.556 257.382 182.574C257.49 182.592 257.244 184.65 256.416 187.062C256.07 188.083 255.669 189.084 255.216 190.062C255.052 190.488 254.828 190.888 254.55 191.25Z" fill="#E0E0E0"/>
<path d="M243.768 206.4C243.544 206.19 243.343 205.957 243.168 205.704L241.626 203.73C240.336 202.056 238.548 199.752 236.544 197.226C234.54 194.7 232.698 192.426 231.366 190.8L229.8 188.862C229.594 188.634 229.413 188.384 229.26 188.118C229.498 188.313 229.715 188.533 229.908 188.772C230.31 189.204 230.88 189.846 231.57 190.644C232.956 192.246 234.834 194.484 236.838 197.016C238.842 199.548 240.606 201.876 241.848 203.586C242.448 204.444 242.958 205.14 243.294 205.632C243.474 205.874 243.633 206.131 243.768 206.4Z" fill="#E0E0E0"/>
<path d="M238.968 200.25C238.908 200.316 237.63 198.792 236.958 196.488C236.58 195.26 236.425 193.973 236.502 192.69H236.658C236.592 192.978 236.538 193.134 236.508 193.128C236.478 193.122 236.478 192.96 236.508 192.666H236.67C236.745 193.916 236.96 195.154 237.312 196.356C237.954 198.6 239.064 200.19 238.968 200.25Z" fill="#E0E0E0"/>
<path d="M232.8 192.456C232.369 192.126 231.897 191.851 231.396 191.64C230.133 191.262 228.803 191.156 227.496 191.328C226.173 191.43 224.86 191.643 223.572 191.964C223.045 192.133 222.505 192.261 221.958 192.348C222.44 192.063 222.962 191.85 223.506 191.718C224.795 191.317 226.126 191.066 227.472 190.968C228.827 190.788 230.206 190.936 231.492 191.4C232.039 191.587 232.502 191.961 232.8 192.456Z" fill="#E0E0E0"/>
<path d="M231.3 190.566C231.3 190.62 230.484 190.236 229.152 189.78C225.667 188.586 221.935 188.303 218.31 188.958C216.924 189.204 216.084 189.462 216.066 189.402C216.242 189.291 216.434 189.21 216.636 189.162C217.168 188.976 217.711 188.823 218.262 188.706C221.923 187.902 225.739 188.192 229.236 189.54C229.761 189.741 230.274 189.974 230.772 190.236C231.126 190.428 231.312 190.542 231.3 190.566Z" fill="#E0E0E0"/>
<path d="M243.72 182.574C243.624 182.574 242.922 180.174 242.154 177.126C241.386 174.078 240.834 171.612 240.954 171.588C241.074 171.564 241.752 173.988 242.52 177.036C243.288 180.084 243.816 182.55 243.72 182.574Z" fill="#E0E0E0"/>
<path d="M243.822 182.574C243.714 182.61 243.258 180.978 242.082 179.31C241.344 178.324 240.483 177.437 239.52 176.67C239.885 176.761 240.224 176.936 240.51 177.18C241.236 177.712 241.867 178.363 242.376 179.106C243.152 180.116 243.651 181.312 243.822 182.574Z" fill="#E0E0E0"/>
<path d="M243.744 254.4C243.708 254.4 243.63 253.8 243.348 252.732C242.935 251.234 242.374 249.781 241.674 248.394C239.946 244.86 236.796 240.372 232.794 235.884C230.808 233.616 228.888 231.48 227.256 229.434C225.79 227.632 224.464 225.72 223.29 223.716C222.505 222.364 221.836 220.946 221.292 219.48C221.106 218.952 220.974 218.55 220.896 218.28C220.844 218.125 220.812 217.963 220.8 217.8C220.836 217.8 221.016 218.4 221.43 219.396C222.023 220.833 222.721 222.225 223.518 223.56C224.714 225.532 226.052 227.415 227.52 229.194C229.158 231.216 231.084 233.346 233.07 235.614C237.084 240.12 240.228 244.656 241.914 248.256C242.598 249.667 243.127 251.147 243.492 252.672C243.592 253.085 243.666 253.504 243.714 253.926C243.742 254.082 243.752 254.241 243.744 254.4Z" fill="#E0E0E0"/>
<path d="M263.532 232.038C263.198 232.259 262.852 232.459 262.494 232.638C261.556 233.172 260.657 233.774 259.806 234.438C258.545 235.418 257.364 236.495 256.272 237.66C255.03 238.968 253.752 240.492 252.45 242.118C249.846 245.388 247.41 248.28 245.952 250.59C245.208 251.736 244.668 252.702 244.314 253.38C244.151 253.742 243.96 254.091 243.744 254.424C243.761 254.322 243.793 254.223 243.84 254.13C243.918 253.944 244.026 253.662 244.188 253.32C244.646 252.335 245.161 251.377 245.73 250.452C247.152 248.088 249.57 245.154 252.168 241.89C253.476 240.258 254.766 238.734 256.032 237.426C257.142 236.265 258.346 235.197 259.632 234.234C260.506 233.588 261.436 233.019 262.41 232.536C262.752 232.362 263.01 232.254 263.22 232.176C263.313 232.109 263.42 232.062 263.532 232.038Z" fill="#E0E0E0"/>
<path d="M263.916 239.286C263.195 239.448 262.463 239.554 261.726 239.604C259.967 239.786 258.228 240.128 256.53 240.624C254.852 241.172 253.278 241.997 251.874 243.066C250.8 243.9 250.296 244.584 250.248 244.542C250.323 244.355 250.433 244.184 250.572 244.038C250.913 243.602 251.294 243.2 251.712 242.838C253.1 241.682 254.697 240.805 256.416 240.252C258.137 239.742 259.91 239.428 261.702 239.316C262.438 239.238 263.179 239.228 263.916 239.286Z" fill="#E0E0E0"/>
<path d="M250.884 243.75C250.77 243.684 251.76 242.172 252.522 240.15C253.284 238.128 253.41 236.31 253.542 236.328C253.599 236.727 253.586 237.133 253.506 237.528C253.396 238.473 253.181 239.403 252.864 240.3C252.532 241.189 252.106 242.04 251.592 242.838C251.407 243.179 251.168 243.487 250.884 243.75Z" fill="#E0E0E0"/>
<path d="M269.94 212.574C269.828 212.647 269.709 212.709 269.586 212.76L268.554 213.228C268.104 213.42 267.558 213.666 266.94 213.99C266.322 214.314 265.602 214.638 264.846 215.094L263.646 215.772C263.232 216.012 262.818 216.294 262.386 216.564C261.504 217.104 260.622 217.764 259.68 218.43C255.644 221.444 252.122 225.091 249.252 229.23C248.616 230.196 247.986 231.102 247.482 232.002C247.224 232.446 246.954 232.866 246.732 233.286L246.09 234.486C245.664 235.254 245.364 235.986 245.064 236.616C244.764 237.246 244.53 237.816 244.356 238.26L243.924 239.304C243.88 239.43 243.821 239.551 243.75 239.664C243.768 239.532 243.802 239.403 243.852 239.28C243.954 238.998 244.074 238.644 244.224 238.206C244.414 237.639 244.632 237.083 244.878 236.538C245.16 235.896 245.448 235.152 245.862 234.372L246.462 233.136C246.678 232.71 246.942 232.284 247.2 231.828C247.692 230.916 248.316 230.028 248.952 229.026C251.81 224.835 255.361 221.16 259.452 218.16C260.412 217.488 261.306 216.834 262.2 216.306C262.644 216.036 263.058 215.76 263.478 215.526L264.678 214.86C265.44 214.422 266.178 214.104 266.808 213.804C267.343 213.538 267.892 213.299 268.452 213.09L269.514 212.688C269.65 212.63 269.793 212.591 269.94 212.574Z" fill="#E0E0E0"/>
<path d="M254.28 223.062C254.427 222.557 254.727 222.111 255.138 221.784C256.102 220.942 257.333 220.47 258.612 220.452C259.864 220.444 261.104 220.686 262.26 221.166C262.75 221.321 263.214 221.545 263.64 221.832C263.147 221.734 262.665 221.59 262.2 221.4C261.054 221.008 259.853 220.806 258.642 220.8C257.442 220.825 256.282 221.233 255.33 221.964C254.955 222.305 254.604 222.672 254.28 223.062Z" fill="#E0E0E0"/>
<path d="M251.94 225.48C251.838 225.426 252.72 224.13 252.924 222.276C253.128 220.422 252.594 218.958 252.702 218.928C252.81 218.898 252.942 219.252 253.11 219.864C253.537 221.477 253.338 223.192 252.552 224.664C252.246 225.216 252 225.504 251.94 225.48Z" fill="#E0E0E0"/>
<path d="M226.44 258C226.98 267.6 229.866 277.314 234.306 287.16H253.602C257.838 277.38 260.52 267.66 261 258H226.44Z" fill="#E0E0E0"/>
<path d="M257.874 273.462C257.874 273.564 251.52 273.648 243.678 273.648C235.836 273.648 229.488 273.564 229.488 273.462C229.488 273.36 235.842 273.282 243.678 273.282C251.514 273.282 257.874 273.366 257.874 273.462Z" fill="#FAFAFA"/>
<path d="M257.442 276.93C257.442 277.032 251.484 277.116 244.14 277.116C236.796 277.116 230.832 277.032 230.832 276.93C230.832 276.828 236.79 276.75 244.14 276.75C251.49 276.75 257.442 276.834 257.442 276.93Z" fill="#FAFAFA"/>
<path d="M234.6 264.258C234.84 267.217 234.84 270.191 234.6 273.15C234.498 273.15 234.42 271.158 234.42 268.704C234.42 266.25 234.516 264.258 234.6 264.258Z" fill="#FAFAFA"/>
<path d="M244.956 264.258C245.058 264.258 245.136 266.316 245.136 268.86C245.136 271.404 245.058 273.462 244.956 273.462C244.854 273.462 244.776 271.404 244.776 268.86C244.776 266.316 244.854 264.258 244.956 264.258Z" fill="#FAFAFA"/>
<path d="M254.664 264.18C254.766 264.18 254.844 266.28 254.844 268.872C254.844 271.464 254.766 273.57 254.664 273.57C254.562 273.57 254.484 271.47 254.484 268.872C254.484 266.274 254.562 264.18 254.664 264.18Z" fill="#FAFAFA"/>
<path d="M260.4 264.258C260.4 264.36 252.948 264.438 243.756 264.438C234.564 264.438 227.112 264.36 227.112 264.258C227.112 264.156 234.558 264.078 243.756 264.078C252.954 264.078 260.4 264.156 260.4 264.258Z" fill="#FAFAFA"/>
<path d="M250.032 168.738H31.344V175.476H250.032V168.738Z" fill="#EBEBEB"/>
<path d="M50.262 174.648L33.876 287.13H37.392L57.6 175.476L50.262 174.648Z" fill="#EBEBEB"/>
<path d="M234.588 173.934L251.874 287.13H248.364L227.244 174.966L234.588 173.934Z" fill="#EBEBEB"/>
<path d="M39.648 141.6V156.768H37.116V158.4H39.648V168.552H87V159.312H83.496V157.296H87V154.296H88.56V152.928H86.7V141.6H39.648Z" fill="#F5F5F5"/>
<path d="M74.418 141.624V168.378H86.988V159.144H83.484V157.302L86.988 157.362V154.344H88.578L88.548 152.784L86.7 152.742V141.582L74.418 141.624Z" fill="#E0E0E0"/>
<path d="M75.312 158.178C75.312 158.274 66.75 158.346 56.184 158.346C45.618 158.346 37.05 158.274 37.05 158.178C37.05 158.082 45.618 158.01 56.184 158.01C66.75 158.01 75.312 158.088 75.312 158.178Z" fill="#E0E0E0"/>
<path d="M75.312 156.636C75.312 156.732 66.75 156.804 56.184 156.804C45.618 156.804 37.05 156.732 37.05 156.636C37.05 156.54 45.618 156.468 56.184 156.468C66.75 156.468 75.312 156.546 75.312 156.636Z" fill="#E0E0E0"/>
<path d="M77.772 152.49C77.772 152.586 69.204 152.658 58.644 152.658C48.084 152.658 39.51 152.586 39.51 152.49C39.51 152.394 48.072 152.322 58.644 152.322C69.216 152.322 77.772 152.4 77.772 152.49Z" fill="#E0E0E0"/>
<path d="M78 163.8C78 163.896 69.438 163.974 58.872 163.974C48.306 163.974 39.738 163.896 39.738 163.8C39.738 163.704 48.3 163.632 58.872 163.632C69.444 163.632 78 163.698 78 163.8Z" fill="#E0E0E0"/>
<path d="M90.4979 131.424H82.2419V141.24H90.4979V131.424Z" fill="#F5F5F5"/>
<path d="M82.5239 130.782H45.2159V141.852H82.5239V130.782Z" fill="#E0E0E0"/>
<path d="M90.744 131.718H81.522V130.8H90.744C90.8681 130.8 90.9871 130.849 91.0749 130.937C91.1627 131.025 91.212 131.144 91.212 131.268C91.2073 131.389 91.156 131.503 91.0687 131.587C90.9814 131.671 90.865 131.718 90.744 131.718Z" fill="#E0E0E0"/>
<path d="M90.744 141.858H81.522V140.922H90.744C90.8681 140.922 90.9871 140.971 91.0749 141.059C91.1627 141.147 91.212 141.266 91.212 141.39C91.212 141.514 91.1627 141.633 91.0749 141.721C90.9871 141.809 90.8681 141.858 90.744 141.858Z" fill="#E0E0E0"/>
<path d="M79.596 130.782H75.186V141.852H79.596V130.782Z" fill="#EBEBEB"/>
<path d="M53.1779 130.908H48.7679V141.978H53.1779V130.908Z" fill="#EBEBEB"/>
<path d="M90.498 133.05C90.498 133.05 88.698 133.098 86.508 133.098C84.318 133.098 82.512 133.098 82.512 133.05C82.512 133.002 84.312 132.996 86.508 132.996C88.704 132.996 90.498 133.02 90.498 133.05Z" fill="#E0E0E0"/>
<path d="M90.498 134.52C90.498 134.52 88.698 134.568 86.508 134.568C84.318 134.568 82.512 134.568 82.512 134.52C82.512 134.472 84.312 134.472 86.508 134.472C88.704 134.472 90.498 134.49 90.498 134.52Z" fill="#E0E0E0"/>
<path d="M90.498 136.332C90.498 136.332 88.698 136.38 86.508 136.38C84.318 136.38 82.512 136.38 82.512 136.332C82.512 136.284 84.312 136.284 86.508 136.284C88.704 136.284 90.498 136.302 90.498 136.332Z" fill="#E0E0E0"/>
<path d="M90.498 138.144C90.498 138.144 88.698 138.192 86.508 138.192C84.318 138.192 82.512 138.192 82.512 138.144C82.512 138.096 84.312 138.096 86.508 138.096C88.704 138.096 90.498 138.114 90.498 138.144Z" fill="#E0E0E0"/>
<path d="M90.498 139.956C90.498 139.956 88.698 140.004 86.508 140.004C84.318 140.004 82.512 140.004 82.512 139.956C82.512 139.908 84.312 139.908 86.508 139.908C88.704 139.908 90.498 139.926 90.498 139.956Z" fill="#E0E0E0"/>
<path d="M72.81 135.336H56.028V137.328H72.81V135.336Z" fill="#EBEBEB"/>
<path d="M74.688 120.036L79.332 130.944H76.344L74.28 125.118L74.688 120.036Z" fill="#E0E0E0"/>
<path d="M60.4319 110.172L58.6379 130.944H73.8119L75.4799 110.172H60.4319Z" fill="#EBEBEB"/>
<path d="M61.914 111.816L60.342 129.216L71.736 129.366L73.272 111.714L61.914 111.816Z" fill="#FAFAFA"/>
<path d="M64.332 114.228L63.438 126.198H69.516L70.584 114.228H64.332Z" fill="#E0E0E0"/>
<path d="M238.705 32.9616L233.095 32.992L233.246 60.9096L238.856 60.8792L238.705 32.9616Z" fill="#E0E0E0"/>
<path d="M199.016 33.0325L184.484 33.1111L184.568 48.5249L199.099 48.4463L199.016 33.0325Z" fill="#EBEBEB"/>
<path d="M213.475 32.9603L198.944 33.0389L199.027 48.4527L213.559 48.3741L213.475 32.9603Z" fill="#F5F5F5"/>
<path d="M184.506 37.38C194.16 37.464 203.844 37.38 213.498 37.248C213.533 37.241 213.565 37.2219 213.588 37.194C213.611 37.1661 213.624 37.1311 213.624 37.095C213.624 37.0589 213.611 37.0239 213.588 36.996C213.565 36.9681 213.533 36.949 213.498 36.942C203.846 36.886 194.184 36.944 184.512 37.116C184.477 37.116 184.443 37.1299 184.419 37.1547C184.394 37.1794 184.38 37.213 184.38 37.248C184.38 37.283 184.394 37.3166 184.419 37.3413C184.443 37.3661 184.477 37.38 184.512 37.38H184.506Z" fill="#E0E0E0"/>
<path d="M201.828 48.1971L175.429 48.34L175.497 60.8978L201.896 60.7549L201.828 48.1971Z" fill="#EBEBEB"/>
<path d="M228.101 48.049L201.701 48.1918L201.769 60.7496L228.169 60.6068L228.101 48.049Z" fill="#F5F5F5"/>
<path d="M175.44 51.84C192.978 52.038 210.576 51.84 228.114 51.582C228.155 51.582 228.195 51.5656 228.224 51.5363C228.254 51.507 228.27 51.4674 228.27 51.426C228.27 51.3846 228.254 51.3449 228.224 51.3157C228.195 51.2864 228.155 51.27 228.114 51.27C210.576 51.18 192.972 51.186 175.44 51.576C175.405 51.576 175.371 51.5899 175.347 51.6147C175.322 51.6394 175.308 51.673 175.308 51.708C175.308 51.743 175.322 51.7766 175.347 51.8013C175.371 51.8261 175.405 51.84 175.44 51.84Z" fill="#E0E0E0"/>
<path d="M267.846 60.906H165.57V65.406H267.846V60.906Z" fill="#E0E0E0"/>
<path d="M186.468 63.072H182.316V78.426H186.468V63.072Z" fill="#E0E0E0"/>
<path d="M248.448 63.072H244.296V78.426H248.448V63.072Z" fill="#E0E0E0"/>
<path d="M244.175 22.552L238.565 22.5824L238.772 60.9818L244.382 60.9514L244.175 22.552Z" fill="#EBEBEB"/>
<path d="M252.943 29.7046L244.225 29.7517L244.394 60.8673L253.112 60.8201L252.943 29.7046Z" fill="#F5F5F5"/>
<path d="M252.888 35.706C251.439 35.8563 249.982 35.9064 248.526 35.856C247.072 35.9065 245.617 35.8564 244.17 35.706C247.073 35.506 249.985 35.506 252.888 35.706Z" fill="#E0E0E0"/>
<path d="M252.888 34.398C251.439 34.5483 249.982 34.5984 248.526 34.548C247.072 34.5985 245.617 34.5484 244.17 34.398C247.073 34.198 249.985 34.198 252.888 34.398Z" fill="#E0E0E0"/>
<path d="M252.888 56.148C249.985 56.348 247.073 56.348 244.17 56.148C247.073 55.948 249.985 55.948 252.888 56.148Z" fill="#E0E0E0"/>
<path d="M252.888 54.84C249.985 55.04 247.073 55.04 244.17 54.84C247.073 54.64 249.985 54.64 252.888 54.84Z" fill="#E0E0E0"/>
<path d="M248.67 51.99C248.586 51.99 248.514 48.852 248.514 44.976C248.514 41.1 248.586 37.968 248.67 37.968C248.754 37.968 248.82 41.106 248.82 44.976C248.82 48.846 248.748 51.99 248.67 51.99Z" fill="#E0E0E0"/>
<path d="M262.47 37.356H252.978V60.846H262.47V37.356Z" fill="#EBEBEB"/>
<path d="M242.904 29.118C242.905 29.4375 242.812 29.7501 242.635 30.0163C242.458 30.2825 242.207 30.4903 241.912 30.6134C241.617 30.7365 241.292 30.7693 240.979 30.7077C240.665 30.6461 240.377 30.4929 240.151 30.2674C239.925 30.0419 239.77 29.7543 239.707 29.4411C239.645 29.1278 239.676 28.803 239.798 28.5077C239.92 28.2125 240.127 27.96 240.393 27.7824C240.658 27.6048 240.971 27.51 241.29 27.51C241.717 27.51 242.127 27.6792 242.429 27.9806C242.732 28.282 242.902 28.691 242.904 29.118Z" fill="#E0E0E0"/>
<path d="M241.788 33.558H240.792V56.4H241.788V33.558Z" fill="#E0E0E0"/>
<path d="M275.91 287.13C275.91 287.214 219.51 287.286 150.006 287.286C80.502 287.286 24.09 287.214 24.09 287.13C24.09 287.046 80.454 286.974 150.006 286.974C219.558 286.974 275.91 287.04 275.91 287.13Z" fill="#263238"/>
<path d="M148.974 211.122L173.712 287.13H169.206L140.226 211.122H148.974Z" fill="#E0E0E0"/>
<path d="M148.974 211.122H148.374H146.694L140.202 211.158L140.262 211.068C145.23 224.01 155.94 252 168.348 284.4C168.684 285.288 169.02 286.2 169.356 287.046L169.212 286.95H173.712L173.562 287.154C166.656 265.848 160.494 246.858 156.06 233.19C153.852 226.344 152.076 220.836 150.852 217.026C150.252 215.124 149.772 213.648 149.448 212.64L149.088 211.494C149.01 211.236 148.974 211.098 148.974 211.098C148.974 211.098 149.022 211.218 149.106 211.47L149.484 212.592C149.814 213.594 150.3 215.052 150.924 216.936C152.172 220.734 153.972 226.224 156.216 233.04C160.686 246.726 166.896 265.734 173.856 287.04L173.922 287.244H169.122L169.08 287.142C168.75 286.266 168.408 285.384 168.072 284.496C155.742 252.048 145.092 224.028 140.178 211.104V211.014H140.274L146.802 211.05H148.464C148.8 211.11 148.974 211.122 148.974 211.122Z" fill="#263238"/>
<path d="M100.29 211.122L75.552 287.13H80.052L109.038 211.122H100.29Z" fill="#E0E0E0"/>
<path d="M100.29 211.122C100.29 211.122 100.476 211.122 100.848 211.122H102.51L109.038 211.086H109.134L109.098 211.176C104.19 224.1 93.54 252.12 81.21 284.568L80.196 287.214L80.16 287.316H75.36L75.426 287.112L93.072 233.112L98.364 217.008C98.964 215.124 99.474 213.666 99.804 212.664L100.182 211.542C100.266 211.29 100.314 211.17 100.314 211.17C100.314 211.17 100.278 211.308 100.2 211.566L99.84 212.712C99.516 213.72 99.042 215.196 98.436 217.098C97.206 220.908 95.436 226.416 93.228 233.262C88.788 246.93 82.632 265.92 75.726 287.226L75.576 287.022H80.076L79.932 287.118L80.94 284.472C93.348 252.072 104.058 224.058 108.996 211.146L109.062 211.236L102.564 211.2H100.89L100.29 211.122Z" fill="#263238"/>
<path d="M140.862 212.79C140.726 212.905 140.582 213.01 140.43 213.102L139.158 213.942L134.472 217.014C130.518 219.618 125.064 223.23 119.07 227.25L103.722 237.6L99.066 240.726L97.8 241.53C97.657 241.636 97.5044 241.729 97.344 241.806C97.4761 241.688 97.6164 241.58 97.764 241.482L99 240.6L103.602 237.396C107.496 234.708 112.902 231.018 118.902 226.998C124.902 222.978 130.368 219.39 134.358 216.834C136.35 215.562 137.958 214.536 139.098 213.834L140.4 213.042C140.547 212.946 140.702 212.862 140.862 212.79Z" fill="#263238"/>
<path d="M93.402 130.092C93.402 130.092 85.65 130.89 84.522 135.558C83.394 140.226 79.722 197.958 84.522 206.136C89.322 214.314 151.122 213.174 155.412 212.052C159.702 210.93 161.724 208.146 161.286 204.744C160.848 201.342 118.764 197.124 118.764 197.124L121.332 136.872C121.332 136.872 106.2 129.252 93.402 130.092Z" fill="#263238"/>
<path d="M161.322 206.202H161.136H160.584L158.466 206.256C156.624 206.304 153.96 206.328 150.666 206.322C144.066 206.322 134.976 206.094 124.95 205.374C119.94 205.008 115.17 204.546 110.844 204.054C106.518 203.562 102.63 203.022 99.378 202.512C97.746 202.272 96.282 202.014 94.992 201.798C93.702 201.582 92.592 201.384 91.686 201.198L89.604 200.796L89.064 200.688L88.884 200.64C88.9458 200.632 89.0083 200.632 89.07 200.64L89.616 200.718L91.71 201.06C92.616 201.216 93.726 201.402 95.022 201.594C96.318 201.786 97.782 202.038 99.408 202.26C102.666 202.746 106.554 203.244 110.874 203.736C115.194 204.228 119.964 204.666 124.974 205.032C134.994 205.752 144.084 205.998 150.666 206.07C153.954 206.106 156.618 206.112 158.466 206.106H161.142L161.322 206.202Z" fill="#455A64"/>
<path d="M152.25 242.658C152.202 242.73 142.41 235.848 130.386 227.298C118.362 218.748 108.648 211.746 108.696 211.698C108.744 211.65 118.536 218.508 130.566 227.064C142.596 235.62 152.298 242.586 152.25 242.658Z" fill="#263238"/>
<path d="M98.88 78.258L93.93 69.54C96.9873 64.5761 98.0773 58.6482 96.9857 52.9215C95.8942 47.1948 92.7001 42.0835 88.0313 38.5923C83.3624 35.101 77.5566 33.4824 71.7549 34.0545C65.9533 34.6267 60.5754 37.3482 56.6785 41.6842C52.7815 46.0202 50.6474 51.6569 50.6955 57.4865C50.7436 63.3162 52.9705 68.9169 56.9385 73.188C60.9065 77.459 66.3285 80.0914 72.1388 80.5677C77.9491 81.0441 83.7275 79.3298 88.338 75.762L98.88 78.258Z" fill="white"/>
<path d="M98.88 78.258L88.308 75.858H88.164L88.254 75.738L88.386 75.87C85.1361 78.4093 81.2705 80.0408 77.184 80.598C75.9602 80.7719 74.7233 80.8362 73.488 80.79C72.852 80.754 72.204 80.736 71.55 80.682L69.576 80.388C63.6937 79.2339 58.4718 75.8827 54.972 71.016C53.0284 68.3316 51.6804 65.2632 51.018 62.016C50.3459 58.5717 50.4401 55.0218 51.294 51.618C52.1779 48.0655 53.8953 44.7747 56.304 42.018C58.7495 39.1885 61.835 36.9834 65.304 35.586C68.6315 34.2721 72.2117 33.7225 75.78 33.978C79.1499 34.2104 82.4273 35.1814 85.38 36.822C90.6866 39.7574 94.6642 44.6176 96.492 50.4C97.2122 52.8682 97.5541 55.4313 97.506 58.002C97.3788 62.1025 96.1722 66.0968 94.008 69.582V69.486L98.88 78.252C98.556 77.7 97.032 75.066 93.852 69.576V69.534V69.486C95.9696 66.0171 97.1386 62.0528 97.242 57.99C97.2812 55.4521 96.9332 52.923 96.21 50.49C94.4038 44.7738 90.4768 39.9665 85.236 37.056C82.3227 35.4441 79.0901 34.4936 75.768 34.272C72.2543 34.0226 68.7295 34.5659 65.454 35.862C62.0402 37.2397 59.0042 39.4118 56.598 42.198C54.2252 44.9128 52.5344 48.1545 51.666 51.654C50.8193 55.0036 50.723 58.4989 51.384 61.89C52.0255 65.1025 53.3471 68.1406 55.26 70.8C58.7048 75.6128 63.8542 78.9321 69.66 80.082L71.61 80.382C72.258 80.436 72.894 80.454 73.524 80.496C74.7448 80.545 75.9675 80.4868 77.178 80.322C81.2269 79.7877 85.0636 78.1963 88.302 75.708L88.902 75.258L88.452 75.858L88.398 75.714L98.88 78.258Z" fill="#263238"/>
<path d="M70.0621 54.198H71.5381L74.7541 49.71V46.764C74.7541 46.764 77.0341 46.626 76.7701 50.478C76.5061 54.33 76.7701 53.352 76.7701 53.352C76.7701 53.352 81.6121 53.352 82.0141 53.796C82.3081 54.096 82.4401 58.908 82.4881 61.512C82.5216 62.1413 82.3429 62.7637 81.9806 63.2793C81.6184 63.795 81.0935 64.1741 80.4901 64.356C80.3201 64.4034 80.1445 64.4277 79.9681 64.428C78.7681 64.428 72.5941 63.444 72.5941 63.444H70.0441L70.0621 54.198Z" fill="#FD813B"/>
<path d="M65.838 53.388L66.75 63.474H69.276V53.592L65.838 53.388Z" fill="#FD813B"/>
<path d="M192.222 181.2C192.222 181.2 206.106 181.2 206.676 194.136C207.246 207.072 166.26 275.316 166.26 275.316L153.282 269.154L181.11 202.932L120.726 196.992L122.436 181.8L192.222 181.2Z" fill="#FFBE9D"/>
<path d="M169.002 271.38L168.6 272.298C168.6 272.298 181.32 285.378 180.18 288.39L149.514 274.59L154.524 264.57C158.13 268.74 162.798 271.128 169.002 271.38Z" fill="#455A64"/>
<g opacity="0.6">
<path d="M156.162 269.238C155.827 269.196 155.487 269.278 155.209 269.47C154.93 269.661 154.731 269.948 154.65 270.276C154.594 270.61 154.669 270.952 154.859 271.233C155.049 271.513 155.339 271.71 155.67 271.782C156.025 271.825 156.384 271.736 156.677 271.531C156.971 271.326 157.178 271.02 157.26 270.672C157.283 270.318 157.168 269.969 156.938 269.699C156.709 269.429 156.383 269.26 156.03 269.226" fill="white"/>
</g>
<g opacity="0.6">
<path d="M149.514 274.596L150.714 272.196L179.664 286.302C179.664 286.302 180.762 287.502 180.174 288.402L149.514 274.596Z" fill="white"/>
</g>
<path d="M168.666 272.43C168.594 272.574 167.814 272.31 166.866 272.46C165.918 272.61 165.234 273.06 165.12 272.94C165.006 272.82 165.624 272.052 166.782 271.89C167.94 271.728 168.762 272.304 168.666 272.43Z" fill="#263238"/>
<path d="M171.288 275.208C171.258 275.364 170.49 275.328 169.698 275.736C168.906 276.144 168.456 276.744 168.312 276.672C168.168 276.6 168.45 275.706 169.446 275.22C170.442 274.734 171.348 275.064 171.288 275.208Z" fill="#263238"/>
<path d="M171.384 279.876C171.234 279.876 171.384 279.006 172.11 278.358C172.836 277.71 173.712 277.704 173.718 277.854C173.724 278.004 173.118 278.25 172.518 278.79C171.918 279.33 171.54 279.93 171.384 279.876Z" fill="#263238"/>
<path d="M165.954 132.426L168.42 139.968L154.974 141.018L153.408 136.98L165.954 132.426Z" fill="#FFBE9D"/>
<path d="M204.132 142.32C204.39 142.836 205.062 142.92 205.578 143.19C206.059 143.465 206.452 143.87 206.714 144.358C206.976 144.846 207.096 145.397 207.06 145.95C206.974 147.055 206.608 148.12 205.998 149.046C205.81 149.422 205.537 149.749 205.2 150C205.029 150.119 204.826 150.182 204.618 150.182C204.41 150.182 204.207 150.119 204.036 150C203.64 149.67 203.688 149.058 203.772 148.548C204.09 146.634 203.676 144.216 204.126 142.326" fill="#FFBE9D"/>
<path d="M114.708 47.754C114.594 46.9126 114.799 46.059 115.284 45.3616C115.768 44.6641 116.496 44.1733 117.324 43.986L132.168 34.542C137.826 33.27 144.954 42.72 145.968 48.42C146.993 54.6849 147.395 61.0359 147.168 67.38C146.76 77.136 140.364 78.18 140.364 78.18L145.164 110.622L122.034 96.36L114.708 47.754Z" fill="#FFBE9D"/>
<path d="M142.884 56.514C142.924 56.833 142.837 57.155 142.644 57.4115C142.45 57.668 142.164 57.839 141.846 57.888C141.533 57.9459 141.211 57.8773 140.948 57.6973C140.686 57.5173 140.506 57.2406 140.448 56.928C140.408 56.609 140.495 56.287 140.688 56.0305C140.882 55.774 141.168 55.603 141.486 55.554C141.799 55.4961 142.122 55.5648 142.384 55.7448C142.646 55.9247 142.826 56.2014 142.884 56.514Z" fill="#263238"/>
<path d="M144.792 53.01C144.672 53.142 143.688 53.124 142.446 53.61C141.204 54.096 140.382 54.744 140.226 54.708C140.07 54.672 140.226 54.498 140.604 54.198C141.125 53.7722 141.716 53.4394 142.35 53.214C142.955 52.9811 143.598 52.8611 144.246 52.86C144.678 52.848 144.852 52.95 144.792 53.01Z" fill="#263238"/>
<path d="M130.596 57.108C130.634 57.4277 130.546 57.7496 130.352 58.0059C130.157 58.2622 129.87 58.4329 129.552 58.482C129.24 58.5381 128.919 58.4687 128.658 58.2888C128.397 58.109 128.218 57.8333 128.16 57.522C128.119 57.2027 128.204 56.8799 128.398 56.623C128.593 56.3662 128.88 56.1956 129.198 56.148C129.511 56.0901 129.834 56.1587 130.096 56.3387C130.358 56.5187 130.538 56.7954 130.596 57.108Z" fill="#263238"/>
<path d="M131.886 55.524C131.706 55.596 130.782 55.044 129.348 54.834C127.914 54.624 126.792 54.834 126.654 54.738C126.516 54.642 126.792 54.54 127.254 54.426C127.974 54.2831 128.713 54.2688 129.438 54.384C130.14 54.4802 130.818 54.7082 131.436 55.056C131.862 55.302 132 55.494 131.886 55.524Z" fill="#263238"/>
<path d="M137.742 63.684C138.412 63.3809 139.117 63.1652 139.842 63.042C140.172 62.97 140.484 62.868 140.514 62.628C140.503 62.2764 140.384 61.9368 140.172 61.656C139.772 60.856 139.34 60.038 138.876 59.202C137.076 55.704 135.708 52.812 135.876 52.74C136.044 52.668 137.604 55.446 139.416 58.944L140.67 61.416C140.931 61.7995 141.048 62.2627 141 62.724C140.965 62.8486 140.901 62.9635 140.815 63.0601C140.729 63.1568 140.622 63.2326 140.502 63.282C140.321 63.3531 140.131 63.4014 139.938 63.426C139.22 63.6033 138.482 63.69 137.742 63.684Z" fill="#263238"/>
<path d="M140.358 78.204C135.876 78.8667 131.299 78.2424 127.158 76.404C127.158 76.404 131.1 83.148 140.58 81.132L140.358 78.204Z" fill="#EB996E"/>
<path d="M137.892 66.918C137.569 66.4977 137.157 66.155 136.684 65.9152C136.212 65.6753 135.692 65.5444 135.162 65.532C134.856 65.5384 134.559 65.6376 134.31 65.8165C134.062 65.9955 133.873 66.2457 133.77 66.534C133.666 66.9065 133.654 67.2985 133.735 67.6767C133.815 68.0548 133.986 68.408 134.232 68.706C134.474 69.0214 134.803 69.2592 135.178 69.3904C135.553 69.5215 135.958 69.5401 136.344 69.444C136.97 69.1858 137.503 68.7445 137.874 68.178C138.009 68.0338 138.105 67.8586 138.156 67.668C138.178 67.5478 138.173 67.4242 138.142 67.306C138.111 67.1878 138.054 67.0779 137.976 66.984" fill="#EB996E"/>
<path d="M133.956 65.052C134.172 65.01 134.34 66.444 135.684 67.32C137.028 68.196 138.54 67.86 138.576 68.058C138.576 68.148 138.27 68.376 137.622 68.472C136.784 68.5812 135.935 68.3921 135.222 67.938C134.538 67.4983 134.052 66.8098 133.866 66.018C133.74 65.4 133.86 65.052 133.956 65.052Z" fill="#263238"/>
<path d="M132.306 49.626C132.18 49.986 130.848 49.836 129.306 50.052C127.764 50.268 126.492 50.706 126.276 50.388C126.18 50.232 126.396 49.89 126.876 49.53C127.547 49.0869 128.31 48.8026 129.108 48.6986C129.905 48.5947 130.716 48.6738 131.478 48.93C132.066 49.2 132.36 49.452 132.306 49.626Z" fill="#263238"/>
<path d="M144.864 50.052C144.606 50.382 143.442 50.202 142.08 50.34C140.718 50.478 139.59 50.826 139.29 50.538C139.152 50.4 139.29 50.076 139.776 49.74C140.437 49.3166 141.19 49.0595 141.971 48.9905C142.753 48.9216 143.54 49.0428 144.264 49.344C144.78 49.602 144.972 49.89 144.864 50.052Z" fill="#263238"/>
<path d="M108.198 72.69C108.438 68.34 109.134 54.414 111.942 46.818C114.75 39.222 118.704 35.82 122.772 34.218C124.308 33.5615 125.988 33.3127 127.649 33.4956C129.31 33.6785 130.895 34.2869 132.252 35.262C134.34 36.738 135.552 41.598 135.552 41.598C135.552 41.598 125.682 45.006 122.952 51.198C119.79 58.278 119.226 61.722 119.226 61.722L118.374 65.496C118.374 65.496 120.228 81.9 121.062 85.296L107.682 98.232C108.12 93.96 107.958 77.034 108.198 72.69Z" fill="#263238"/>
<path d="M135.846 41.622C135.846 41.622 141.564 40.332 144.45 46.626C145.758 49.476 147.054 58.104 147.054 58.104C147.054 58.104 147.54 51.054 146.784 47.22C146.028 43.386 143.538 38.706 140.262 36.336C136.986 33.966 134.502 33.072 129.378 33.972C130.921 34.3578 132.322 35.1758 133.416 36.33C134.19 37.236 134.574 38.04 135.846 41.622Z" fill="#263238"/>
<path d="M119.334 62.19C118.986 60.078 116.514 58.926 114.798 60.204C113.856 60.9 113.22 62.16 113.568 64.404C114.504 70.404 120.306 68.208 120.288 68.04C120.27 67.872 119.742 64.656 119.334 62.19Z" fill="#FFBE9D"/>
<path d="M118.11 66.054C118.11 66.054 118.02 66.144 117.858 66.252C117.624 66.394 117.346 66.4432 117.078 66.39C116.412 66.258 115.728 65.334 115.53 64.266C115.434 63.756 115.455 63.2309 115.59 62.73C115.615 62.5341 115.687 62.3472 115.801 62.186C115.915 62.0248 116.067 61.8943 116.244 61.806C116.359 61.7575 116.488 61.7502 116.608 61.7851C116.728 61.8201 116.833 61.8952 116.904 61.998C117.012 62.154 116.988 62.274 117.024 62.28C117.06 62.286 117.138 62.16 117.024 61.92C116.968 61.7772 116.864 61.6584 116.73 61.584C116.546 61.4863 116.33 61.4648 116.13 61.524C115.892 61.6114 115.68 61.7581 115.514 61.9502C115.348 62.1423 115.234 62.3735 115.182 62.622C115.01 63.1775 114.977 63.7668 115.086 64.338C115.308 65.538 116.1 66.57 117.006 66.684C117.173 66.7052 117.343 66.6887 117.503 66.6358C117.663 66.5828 117.809 66.4947 117.93 66.378C118.122 66.198 118.134 66.06 118.11 66.054Z" fill="#EB996E"/>
<path d="M125.13 33.558C125.13 33.606 125.958 33.486 127.278 33.51C128.05 33.5252 128.816 33.6608 129.546 33.912C130.433 34.2401 131.248 34.7373 131.946 35.376C133.237 36.5301 134.244 37.9677 134.886 39.576C135.378 40.776 135.486 41.628 135.558 41.616C135.549 41.4236 135.521 41.2327 135.474 41.046C134.996 38.7981 133.81 36.7626 132.09 35.238C131.37 34.5713 130.523 34.057 129.6 33.726C128.85 33.475 128.063 33.3513 127.272 33.36C126.742 33.3598 126.213 33.3939 125.688 33.462C125.5 33.4785 125.313 33.5106 125.13 33.558Z" fill="#455A64"/>
<path d="M114.276 67.164C114.278 67.13 114.278 67.096 114.276 67.062L114.192 66.792C114.15 66.666 114.108 66.516 114.054 66.348L113.892 65.748C113.565 64.4364 113.428 63.0846 113.484 61.734C113.56 59.7305 114.053 57.7648 114.93 55.962C116.051 53.7793 117.651 51.878 119.61 50.4C120.615 49.6241 121.667 48.9108 122.76 48.264C123.816 47.628 124.878 47.1 125.862 46.512C127.583 45.4622 129.22 44.2806 130.758 42.978C132.072 41.868 133.086 40.914 133.758 40.242C134.1 39.906 134.358 39.642 134.532 39.456L134.73 39.246C134.772 39.198 134.796 39.174 134.79 39.168L134.718 39.228L134.502 39.426L133.71 40.2C133.008 40.854 131.982 41.79 130.656 42.876C129.112 44.1571 127.476 45.3223 125.76 46.362C124.788 46.962 123.714 47.46 122.652 48.102C121.549 48.7485 120.488 49.466 119.478 50.25C117.486 51.7422 115.861 53.669 114.726 55.884C113.846 57.712 113.363 59.7058 113.31 61.734C113.269 63.096 113.429 64.4566 113.784 65.772L113.964 66.372C114.03 66.54 114.084 66.684 114.126 66.81L114.234 67.08C114.258 67.134 114.27 67.164 114.276 67.164Z" fill="#455A64"/>
<path d="M112.626 65.052C112.626 65.052 112.626 65.016 112.626 64.956L112.59 64.668C112.59 64.416 112.494 64.068 112.446 63.57C112.305 62.2186 112.283 60.8573 112.38 59.502C112.527 57.4948 112.93 55.5146 113.58 53.61C114.392 51.2837 115.578 49.1052 117.09 47.16C118.647 45.2376 120.465 43.5413 122.49 42.12C124.29 40.776 126.09 39.72 127.524 38.772C128.958 37.824 130.152 37.098 130.95 36.546C131.352 36.282 131.652 36.06 131.856 35.91L132.09 35.742L132.168 35.676C132.168 35.676 132.132 35.676 132.078 35.724L131.832 35.874L130.902 36.474C130.098 36.996 128.91 37.734 127.44 38.634C125.97 39.534 124.218 40.614 122.37 41.958C120.34 43.3809 118.522 45.0838 116.97 47.016C115.428 48.9798 114.221 51.1857 113.4 53.544C112.742 55.4672 112.339 57.4682 112.2 59.496C112.117 60.8573 112.163 62.2235 112.338 63.576C112.398 64.056 112.482 64.422 112.524 64.674C112.524 64.788 112.566 64.884 112.584 64.956C112.602 65.028 112.62 65.052 112.626 65.052Z" fill="#455A64"/>
<path d="M144.66 88.158C144.66 88.158 152.394 91.302 153.876 95.328C155.358 99.354 166.602 132.6 166.602 132.6L153.552 137.604L147.6 110.244L144.66 88.158Z" fill="#455A64"/>
<path d="M104.676 182.568C104.676 182.568 184.476 178.902 189.486 180.222C194.496 181.542 197.49 184.068 198.486 190.074C199.482 196.08 214.866 275.652 214.866 275.652L200.874 279.768C200.874 279.768 181.242 234.948 180.408 227.448C179.574 219.948 176.808 204.576 176.808 204.576C176.808 204.576 146.472 205.074 124.134 204.576C101.796 204.078 104.796 183.402 104.796 183.402L104.676 182.568Z" fill="#FFBE9D"/>
<path d="M200.7 280.128L200.598 279.888C199.794 278.052 180.942 234.942 180.114 227.478C179.346 220.596 176.928 206.898 176.568 204.876C173.568 204.924 145.146 205.344 124.14 204.876C117.198 204.72 111.972 202.614 108.594 198.624C103.482 192.582 104.394 184.122 104.508 183.408L104.322 182.286H104.658C107.922 182.136 184.572 178.632 189.564 179.952C195.168 181.434 197.838 184.356 198.786 190.038C199.77 195.966 214.986 274.818 215.166 275.616L215.214 275.88L200.7 280.128ZM177.066 204.27L177.114 204.522C177.144 204.672 179.886 219.99 180.714 227.412C181.5 234.498 199.488 275.838 201.048 279.402L214.53 275.442C213.546 270.348 199.158 195.882 198.198 190.122C197.298 184.722 194.754 181.926 189.414 180.522C184.686 179.268 110.688 182.604 105.03 182.862L105.12 183.408V183.45C105.12 183.54 103.92 192.174 109.068 198.246C112.332 202.098 117.408 204.126 124.164 204.282C146.238 204.774 176.52 204.282 176.826 204.282L177.066 204.27Z" fill="#EB996E"/>
<path d="M110.064 139.53L112.074 151.962C112.074 151.962 103.344 168.504 102.36 182.724C101.892 189.48 105.768 203.316 105.768 203.316C105.768 203.316 136.512 206.694 153.096 206.262L170.79 205.488L173.91 177.846L154.05 174.978L154.35 137.31C154.35 137.31 157.95 127.392 158.226 124.458C158.862 118.266 158.598 112.002 152.412 103.974L144.66 88.158L142.074 86.958L143.304 106.116L121.02 84.942L109.734 88.992L106.536 104.082L110.064 139.53Z" fill="#455A64"/>
<g opacity="0.3">
<path d="M148.692 179.556C147.246 179.808 136.812 179.958 135.366 180.21C135.12 180.285 134.861 180.31 134.605 180.282C134.35 180.254 134.102 180.175 133.878 180.048C133.697 179.877 133.572 179.656 133.519 179.413C133.465 179.17 133.486 178.917 133.578 178.686C133.769 178.221 134.07 177.81 134.454 177.486C136.98 175.086 140.262 173.7 143.454 172.344C144.474 171.918 145.578 171.48 146.646 171.744C147.17 171.917 147.643 172.215 148.026 172.612C148.409 173.01 148.689 173.494 148.842 174.024C149.146 175.082 149.272 176.183 149.214 177.282" fill="black"/>
</g>
<g opacity="0.3">
<path d="M110.886 148.2C114.612 147.33 116.952 143.658 118.464 140.142C119.976 136.626 121.224 132.744 124.188 130.32C126.36 128.52 129.27 127.728 131.148 125.64C132.041 124.617 132.633 123.367 132.858 122.028C133.084 120.69 132.934 119.315 132.426 118.056C131.886 116.772 130.8 115.56 129.426 115.488C127.806 115.404 126.546 116.808 125.556 118.098C121.028 124.03 116.758 130.15 112.746 136.458C110.592 139.848 108.444 143.964 109.944 147.69" fill="black"/>
</g>
<path d="M110.91 90.972C110.91 90.972 104.604 92.976 102.324 96.93C100.044 100.884 96.264 120.084 95.352 125.256C94.44 130.428 90.03 151.71 95.352 155.058C100.674 158.406 107.67 153.258 109.494 150.192C111.318 147.126 118.764 131.184 118.764 131.184L112.074 125.562C112.074 125.562 113.274 110.358 112.836 107.16C112.398 103.962 110.91 90.972 110.91 90.972Z" fill="#FFBE9D"/>
<path d="M91.134 130.446L105.768 131.4L112.452 123.552L114.3 111.192L113.808 87.546C113.808 87.546 100.746 90.732 97.92 100.662C95.826 108 91.134 130.446 91.134 130.446Z" fill="#455A64"/>
<path d="M117.03 102.48C116.19 102.366 115.116 103.356 115.83 105.744C116.43 107.736 117.558 109.674 117.474 110.784C117.39 111.894 116.958 114.204 116.958 115.404C116.906 116.577 116.792 117.747 116.616 118.908L106.656 130.908L115.278 138.516L122.1 127.8C122.1 127.8 124.158 128.142 125.352 126.774L127.152 124.716C127.152 124.716 131.772 123.006 130.83 120.516C130.83 120.516 132.198 119.214 130.956 117.126C130.956 117.126 131.604 114.954 130.662 113.676C130.662 113.676 130.578 110.766 129.804 110.25C129.03 109.734 121.026 109.65 121.026 109.65C120.59 108.32 120.087 107.012 119.52 105.732C118.644 104.286 118.2 102.636 117.03 102.48Z" fill="#FFBE9D"/>
<path d="M120.438 114.282C120.438 114.312 120.228 114.198 120.042 113.916C119.8 113.536 119.694 113.085 119.742 112.637C119.79 112.189 119.989 111.77 120.306 111.45C120.546 111.216 120.75 111.144 120.768 111.174C120.411 111.606 120.166 112.119 120.054 112.668C120.055 113.229 120.186 113.781 120.438 114.282Z" fill="#EB996E"/>
<path d="M130.326 113.46C129.119 113.812 127.878 114.031 126.624 114.114C125.381 114.295 124.121 114.337 122.868 114.24C124.101 114.025 125.345 113.879 126.594 113.802C127.83 113.617 129.077 113.503 130.326 113.46Z" fill="#EB996E"/>
<path d="M131.034 116.892C130.04 117.296 128.99 117.547 127.92 117.636C126.865 117.831 125.787 117.868 124.722 117.744C124.722 117.654 126.138 117.564 127.878 117.324C129.618 117.084 131.016 116.808 131.034 116.892Z" fill="#EB996E"/>
<path d="M130.86 120.414C129.308 120.89 127.676 121.051 126.06 120.888C126.849 120.715 127.653 120.613 128.46 120.582C129.254 120.456 130.057 120.4 130.86 120.414Z" fill="#EB996E"/>
<path d="M123.3 121.494C123.3 121.53 123.132 121.494 122.928 121.38C122.659 121.197 122.47 120.918 122.4 120.6C122.323 120.286 122.366 119.954 122.52 119.67C122.64 119.46 122.772 119.376 122.802 119.4C122.832 119.424 122.556 119.922 122.7 120.528C122.844 121.134 123.342 121.416 123.3 121.494Z" fill="#EB996E"/>
<path d="M121.332 118.638C121.332 118.668 121.134 118.566 120.948 118.308C120.709 117.967 120.572 117.566 120.552 117.15C120.527 116.733 120.619 116.318 120.816 115.95C120.978 115.674 121.134 115.554 121.164 115.578C120.981 116.074 120.879 116.597 120.864 117.126C120.941 117.651 121.099 118.161 121.332 118.638Z" fill="#EB996E"/>
<path d="M128.4 124.2C127.965 124.431 127.487 124.569 126.996 124.608C126.521 124.745 126.022 124.78 125.532 124.71C125.966 124.477 126.444 124.338 126.936 124.302C127.411 124.162 127.91 124.127 128.4 124.2Z" fill="#EB996E"/>
<path d="M124.542 109.704C124.542 109.794 123.342 109.794 121.824 109.944C120.306 110.094 119.136 110.328 119.112 110.244C119.963 109.884 120.871 109.68 121.794 109.644C122.706 109.501 123.637 109.521 124.542 109.704Z" fill="#EB996E"/>
<path d="M150.888 138.546H200.484C201.359 138.546 202.199 138.894 202.817 139.513C203.436 140.131 203.784 140.971 203.784 141.846V177H147.6V141.84C147.602 140.968 147.948 140.132 148.564 139.515C149.18 138.897 150.016 138.549 150.888 138.546Z" fill="#E0E0E0"/>
<path d="M203.784 179.556H137.784C137.784 178.884 138.051 178.24 138.526 177.766C139.001 177.291 139.645 177.024 140.316 177.024H203.784V179.556Z" fill="#E0E0E0"/>
<path d="M201.708 141.018H149.304V177.024H201.708V141.018Z" fill="white"/>
<path d="M201.702 177C201.702 177 201.702 176.772 201.702 176.34C201.702 175.908 201.702 175.26 201.702 174.432C201.702 172.758 201.702 170.31 201.666 167.178C201.666 160.914 201.63 151.932 201.6 140.994L201.726 141.12H149.328L149.484 140.964C149.484 153.822 149.484 166.032 149.484 176.964L149.346 176.82L187.092 176.892L197.892 176.934H200.766H201.504H201.762H201.522H200.796H197.952L187.206 176.97L149.364 177.042H149.22V177C149.22 166.062 149.22 153.852 149.22 141V140.844H149.376H201.774H201.9V141C201.9 151.968 201.852 160.98 201.834 167.262C201.834 170.382 201.834 172.818 201.834 174.462C201.834 175.284 201.834 175.914 201.834 176.346C201.834 176.778 201.702 177 201.702 177Z" fill="#263238"/>
<path d="M203.508 177C203.508 177.09 189.342 177.156 171.87 177.156C154.398 177.156 140.226 177.09 140.226 177C140.226 176.91 154.392 176.844 171.87 176.844C189.348 176.844 203.508 176.94 203.508 177Z" fill="#263238"/>
<path d="M175.5 172.794C183.105 172.794 189.27 166.629 189.27 159.024C189.27 151.419 183.105 145.254 175.5 145.254C167.895 145.254 161.73 151.419 161.73 159.024C161.73 166.629 167.895 172.794 175.5 172.794Z" fill="#FD813B"/>
<path d="M166.944 159.36L169.86 156.6L173.886 160.308L181.812 152.85L184.692 155.574L173.844 165.87L166.944 159.36Z" fill="white"/>
<path d="M116.628 118.908C116.694 118.962 112.56 123.954 107.394 130.05C102.228 136.146 97.986 141.042 97.92 141C97.854 140.958 101.988 135.96 107.154 129.858C112.32 123.756 116.562 118.854 116.628 118.908Z" fill="#EB996E"/>
<path d="M115.914 111.174C115.779 112.915 115.541 114.646 115.2 116.358C114.964 118.089 114.623 119.804 114.18 121.494C114.315 119.751 114.553 118.018 114.894 116.304C115.134 114.576 115.475 112.863 115.914 111.174Z" fill="#263238"/>
<path d="M154.35 137.31C154.372 137.187 154.404 137.067 154.446 136.95L154.77 135.942C155.058 135.072 155.484 133.812 155.97 132.246C156.55 130.416 157.035 128.558 157.422 126.678C157.905 124.383 158.121 122.039 158.064 119.694C157.847 115.424 156.648 111.262 154.56 107.532C153.94 106.396 153.259 105.294 152.52 104.232C152.268 103.854 152.052 103.572 151.92 103.374C151.843 103.275 151.776 103.169 151.722 103.056C151.814 103.139 151.896 103.231 151.968 103.332C152.124 103.524 152.358 103.794 152.628 104.166C153.408 105.206 154.121 106.294 154.764 107.424C155.719 109.106 156.505 110.879 157.11 112.716C157.863 114.966 158.297 117.311 158.4 119.682C158.461 122.052 158.235 124.422 157.728 126.738C157.324 128.623 156.815 130.484 156.204 132.312C155.688 133.872 155.232 135.126 154.908 135.984C154.752 136.384 154.626 136.714 154.53 136.974C154.484 137.093 154.424 137.206 154.35 137.31Z" fill="#263238"/>
<path d="M141.6 118.626C141.625 118.905 141.625 119.187 141.6 119.466C141.599 119.795 141.575 120.124 141.528 120.45C141.485 120.885 141.419 121.318 141.33 121.746C141.234 122.265 141.106 122.778 140.946 123.282C140.777 123.866 140.577 124.441 140.346 125.004C139.792 126.274 139.104 127.481 138.294 128.604C137.463 129.725 136.512 130.752 135.456 131.664C134.993 132.059 134.509 132.428 134.004 132.768C133.572 133.075 133.121 133.353 132.654 133.602C132.266 133.826 131.866 134.026 131.454 134.202C131.159 134.346 130.854 134.468 130.542 134.568C130.282 134.675 130.013 134.757 129.738 134.814C129.708 134.748 130.86 134.394 132.516 133.428C132.969 133.168 133.408 132.883 133.83 132.576C134.298 132.264 134.748 131.868 135.24 131.466C137.307 129.647 138.947 127.393 140.04 124.866C140.269 124.317 140.469 123.756 140.64 123.186C140.806 122.69 140.944 122.185 141.054 121.674C141.552 119.826 141.54 118.626 141.6 118.626Z" fill="#263238"/>
<path d="M158.094 124.08C158.06 124.047 158.032 124.008 158.01 123.966L157.8 123.6C157.602 123.27 157.332 122.82 156.99 122.262C156.648 121.704 156.114 121.02 155.556 120.24C154.998 119.46 154.29 118.608 153.54 117.654C150.456 113.886 145.902 108.936 140.682 103.65C135.462 98.364 130.56 93.756 126.966 90.45L124.518 88.26C123.798 87.624 123.174 87.06 122.652 86.628L121.452 85.614L121.146 85.344C121.107 85.316 121.072 85.2815 121.044 85.242C121.087 85.2631 121.127 85.2893 121.164 85.32C121.254 85.386 121.362 85.464 121.488 85.566L122.724 86.532L124.626 88.128C125.364 88.764 126.192 89.49 127.104 90.288C130.746 93.528 135.66 98.13 140.904 103.41C146.148 108.69 150.666 113.682 153.708 117.492C154.452 118.458 155.124 119.328 155.7 120.108L157.092 122.172C157.41 122.772 157.692 123.204 157.854 123.546L158.046 123.906C158.086 124.022 158.102 124.08 158.094 124.08Z" fill="#263238"/>
<path d="M146.442 151.836C146.332 151.875 146.217 151.897 146.1 151.902L145.122 152.04C144.27 152.154 143.028 152.286 141.522 152.424C138.456 152.7 134.202 152.922 129.522 152.868C124.842 152.814 120.57 152.472 117.522 152.124C115.992 151.95 114.756 151.782 113.922 151.644L112.944 151.488C112.829 151.475 112.717 151.449 112.608 151.41C112.724 151.395 112.84 151.395 112.956 151.41L113.94 151.512C114.792 151.614 116.034 151.746 117.54 151.89C120.594 152.184 124.836 152.49 129.54 152.544C134.244 152.598 138.474 152.406 141.54 152.19C143.07 152.082 144.312 151.986 145.14 151.908L146.124 151.83C146.23 151.821 146.337 151.823 146.442 151.836Z" fill="#263238"/>
<path d="M172.428 138.504C172.428 138.504 182.256 134.67 183.186 134.364C184.116 134.058 192.708 133.386 192.708 133.386L203.784 137.364C203.784 137.364 203.886 139.638 201.3 139.332C199.02 138.947 196.772 138.393 194.574 137.676L193.02 138.6L172.428 138.504Z" fill="#FFBE9D"/>
<path d="M203.25 139.962C203.508 140.484 204.18 140.562 204.696 140.838C205.173 141.117 205.564 141.522 205.826 142.009C206.087 142.496 206.209 143.046 206.178 143.598C206.092 144.701 205.726 145.765 205.116 146.688C204.929 147.061 204.658 147.385 204.324 147.636C204.153 147.755 203.95 147.818 203.742 147.818C203.534 147.818 203.331 147.755 203.16 147.636C202.996 147.436 202.886 147.198 202.84 146.944C202.793 146.69 202.813 146.428 202.896 146.184C203.214 144.27 202.8 141.846 203.25 139.956" fill="#FFBE9D"/>
<path d="M214.386 272.682L214.722 273.618C214.722 273.618 232.962 274.332 234.21 277.296L202.482 288.444L199.2 277.734C204.69 278.262 209.712 276.774 214.386 272.682Z" fill="#455A64"/>
<g opacity="0.6">
<path d="M203.604 279.978C203.331 280.179 203.141 280.474 203.071 280.806C203.002 281.138 203.057 281.484 203.226 281.778C203.417 282.064 203.712 282.264 204.047 282.336C204.383 282.409 204.734 282.349 205.026 282.168C205.315 281.956 205.516 281.644 205.588 281.292C205.66 280.941 205.599 280.575 205.416 280.266C205.187 279.996 204.863 279.824 204.511 279.788C204.159 279.751 203.806 279.851 203.526 280.068" fill="white"/>
</g>
<g opacity="0.6">
<path d="M202.482 288.444L201.696 285.87L232.392 276.126C232.392 276.126 234.018 276.246 234.192 277.326L202.482 288.444Z" fill="white"/>
</g>
<path d="M214.866 273.672C214.914 273.828 214.164 274.17 213.576 274.938C212.988 275.706 212.814 276.498 212.652 276.486C212.49 276.474 212.4 275.496 213.126 274.584C213.852 273.672 214.848 273.516 214.866 273.672Z" fill="#263238"/>
<path d="M218.676 273.876C218.766 274.014 218.184 274.512 217.89 275.352C217.596 276.192 217.686 276.942 217.53 276.99C217.374 277.038 216.966 276.192 217.356 275.154C217.746 274.116 218.622 273.732 218.676 273.876Z" fill="#263238"/>
<path d="M221.964 277.2C221.838 277.284 221.364 276.6 221.448 275.598C221.532 274.596 222.156 274.02 222.264 274.122C222.372 274.224 222.09 274.842 222.018 275.652C221.946 276.462 222.114 277.128 221.964 277.2Z" fill="#263238"/>
</svg>
